<svg width="22" height="21" viewBox="0 0 22 21" fill="none" xmlns="http://www.w3.org/2000/svg">
<g id="Component 2" clip-path="url(#clip0_203_500)">
<path id="Vector" d="M10.5245 20.9185C10.4127 20.9174 10.3021 20.8939 10.1995 20.8495C10.0968 20.805 10.0041 20.7405 9.92673 20.6596L1.85405 12.228C-0.61932 9.6452 -0.61932 5.44257 1.85405 2.85974C4.22849 0.37794 8.03539 0.277953 10.5245 2.56609C13.0127 0.280058 16.8185 0.376888 19.195 2.85974C21.6684 5.44257 21.6684 9.64625 19.195 12.227L11.1224 20.6596C11.045 20.7405 10.9523 20.805 10.8496 20.8495C10.747 20.8939 10.6364 20.9174 10.5245 20.9185ZM6.33981 2.68713C5.72722 2.68653 5.12106 2.81192 4.55898 3.0555C3.99055 3.30185 3.47733 3.65975 3.04969 4.108C2.17226 5.03612 1.68538 6.26614 1.68986 7.54336C1.68986 8.83057 2.17822 10.0662 3.04969 10.9777L10.5245 18.7851L17.9994 10.9777C18.8766 10.0498 19.3635 8.82021 19.3592 7.54336C19.3637 6.26614 18.8768 5.03612 17.9994 4.108C17.5756 3.66124 17.0657 3.305 16.5004 3.06079C15.9351 2.81658 15.3261 2.68946 14.7103 2.68713C14.0946 2.68946 13.4856 2.81658 12.9203 3.06079C12.355 3.305 11.8451 3.66124 11.4213 4.108L11.1224 4.42059C11.0448 4.50101 10.9519 4.56522 10.8493 4.60948C10.7467 4.65375 10.6363 4.67719 10.5245 4.67846C10.4124 4.67882 10.3015 4.656 10.1986 4.61145C10.0957 4.56689 10.0032 4.50156 9.92673 4.41954L9.62677 4.10695C9.19952 3.65872 8.68665 3.30082 8.11854 3.05445C7.55714 2.81104 6.9517 2.6867 6.33981 2.68713Z" fill="black"/>
</g>
<defs>
<clipPath id="clip0_203_500">
<rect width="21.05" height="19.9975" fill="white" transform="translate(0 0.921143)"/>
</clipPath>
</defs>
</svg>
