<svg width="29" height="33" viewBox="0 0 29 33" fill="none" xmlns="http://www.w3.org/2000/svg">
<g id="mdi:account">
<path id="Vector" d="M14.0501 6.25317C15.2878 6.25317 16.4748 6.81508 17.35 7.81527C18.2251 8.81546 18.7168 10.172 18.7168 11.5865C18.7168 13.001 18.2251 14.3575 17.35 15.3577C16.4748 16.3579 15.2878 16.9198 14.0501 16.9198C12.8125 16.9198 11.6255 16.3579 10.7503 15.3577C9.87513 14.3575 9.38346 13.001 9.38346 11.5865C9.38346 10.172 9.87513 8.81546 10.7503 7.81527C11.6255 6.81508 12.8125 6.25317 14.0501 6.25317ZM14.0501 19.5865C19.2068 19.5865 23.3835 21.9732 23.3835 24.9198V27.5865H4.7168V24.9198C4.7168 21.9732 8.89346 19.5865 14.0501 19.5865Z" fill="#7A9B76"/>
</g>
</svg>
