<svg width="20" height="21" viewBox="0 0 20 21" fill="none" xmlns="http://www.w3.org/2000/svg">
<g id="Component 2" clip-path="url(#clip0_93_3183)">
<path id="Vector" d="M7.9075 16.7349C5.81101 16.7326 3.80105 15.8988 2.31861 14.4163C0.836169 12.9339 0.00231602 10.9239 0 8.82742C0.00231602 6.73093 0.836169 4.72098 2.31861 3.23853C3.80105 1.75609 5.81101 0.922238 7.9075 0.919922C10.004 0.922238 12.0139 1.75609 13.4964 3.23853C14.9788 4.72098 15.8127 6.73093 15.815 8.82742C15.8127 10.9239 14.9788 12.9339 13.4964 14.4163C12.0139 15.8988 10.004 16.7326 7.9075 16.7349ZM7.9075 2.50117C4.42 2.50117 1.5825 5.33867 1.5825 8.82742C1.5825 12.3149 4.42 15.1537 7.9075 15.1537C11.395 15.1537 14.2325 12.3162 14.2325 8.82867C14.2308 7.15145 13.564 5.54337 12.3783 4.35716C11.1925 3.17096 9.58472 2.50349 7.9075 2.50117Z" fill="#7A9B76"/>
<path id="Vector_2" d="M19.2088 20.9198C19.1048 20.9202 19.0018 20.8999 18.9057 20.8602C18.8096 20.8205 18.7223 20.7622 18.6488 20.6886L12.5651 14.6036C12.4914 14.5304 12.4329 14.4433 12.393 14.3474C12.3531 14.2515 12.3325 14.1487 12.3325 14.0448C12.3325 13.941 12.3531 13.8381 12.393 13.7422C12.4329 13.6463 12.4914 13.5593 12.5651 13.4861C12.6384 13.4124 12.7255 13.3538 12.8215 13.3139C12.9175 13.274 13.0205 13.2534 13.1245 13.2534C13.2284 13.2534 13.3314 13.274 13.4274 13.3139C13.5234 13.3538 13.6105 13.4124 13.6838 13.4861L19.7676 19.5698C19.8792 19.68 19.9554 19.821 19.9865 19.9747C20.0176 20.1284 20.0022 20.2878 19.9422 20.4327C19.8822 20.5776 19.7804 20.7014 19.6498 20.7881C19.5192 20.8749 19.3656 20.9207 19.2088 20.9198Z" fill="#7A9B76"/>
</g>
<defs>
<clipPath id="clip0_93_3183">
<rect width="20" height="20" fill="white" transform="translate(0 0.919922)"/>
</clipPath>
</defs>
</svg>
